<svg width="21" height="21" viewBox="0 0 21 21" fill="none" xmlns="http://www.w3.org/2000/svg">
<path d="M10.1541 0.473663C15.7244 0.473663 20.2397 4.98903 20.2397 10.5594C20.2397 16.1297 15.7244 20.6451 10.1541 20.6451H2.0855C1.55052 20.6451 1.03745 20.4325 0.659166 20.0542C0.280879 19.676 0.0683594 19.1629 0.0683594 18.6279V10.5594C0.0683594 4.98903 4.58373 0.473663 10.1541 0.473663ZM10.1541 12.5765H7.12835C6.86086 12.5765 6.60432 12.6828 6.41518 12.8719C6.22604 13.061 6.11978 13.3176 6.11978 13.5851C6.11978 13.8526 6.22604 14.1091 6.41518 14.2982C6.60432 14.4874 6.86086 14.5936 7.12835 14.5936H10.1541C10.4215 14.5936 10.6781 14.4874 10.8672 14.2982C11.0564 14.1091 11.1626 13.8526 11.1626 13.5851C11.1626 13.3176 11.0564 13.061 10.8672 12.8719C10.6781 12.6828 10.4215 12.5765 10.1541 12.5765ZM13.1798 8.54222H7.12835C6.87128 8.5425 6.62403 8.64094 6.4371 8.81741C6.25018 8.99387 6.13769 9.23506 6.12263 9.49168C6.10756 9.7483 6.19106 10.001 6.35605 10.1981C6.52104 10.3952 6.75508 10.5219 7.01034 10.5523L7.12835 10.5594H13.1798C13.4368 10.5591 13.6841 10.4606 13.871 10.2842C14.0579 10.1077 14.1704 9.86652 14.1855 9.6099C14.2005 9.35327 14.1171 9.10058 13.9521 8.90346C13.7871 8.70633 13.553 8.57964 13.2978 8.54928L13.1798 8.54222Z" fill="#ffffff"/>
</svg>
