<svg width="15" height="26" viewBox="0 0 15 26" fill="none" xmlns="http://www.w3.org/2000/svg">
<path d="M10.6344 12.2395L5.33832 10.6834C4.72534 10.5061 4.29871 9.92988 4.29871 9.28968C4.29871 8.48696 4.94602 7.8369 5.74534 7.8369H8.99657C9.59484 7.8369 10.1833 8.01912 10.6737 8.35399C10.9728 8.5559 11.3749 8.50666 11.6299 8.2555L13.3365 6.58112C13.6846 6.24132 13.6356 5.67498 13.2482 5.37458C12.0468 4.42904 10.5462 3.9021 9.00638 3.89718V1.53334C9.00638 1.09997 8.65331 0.745399 8.22177 0.745399H6.65255C6.22101 0.745399 5.86794 1.09997 5.86794 1.53334V3.89718H5.74534C2.62161 3.89718 0.110848 6.59097 0.400174 9.78707C0.606134 12.0573 2.33228 13.9041 4.50958 14.5443L9.53599 16.0217C10.149 16.2039 10.5756 16.7752 10.5756 17.4154C10.5756 18.2181 9.9283 18.8681 9.12898 18.8681H5.87774C5.27948 18.8681 4.69102 18.6859 4.20064 18.351C3.9015 18.1491 3.49939 18.1984 3.24439 18.4495L1.53786 20.1239C1.18969 20.4637 1.23873 21.0301 1.62613 21.3305C2.82757 22.276 4.32814 22.8029 5.86794 22.8079V25.1717C5.86794 25.6051 6.22101 25.9596 6.65255 25.9596H8.22177C8.65331 25.9596 9.00638 25.6051 9.00638 25.1717V22.798C11.2916 22.7537 13.4345 21.3896 14.1897 19.2178C15.244 16.1842 13.4738 13.0718 10.6344 12.2395Z" fill="white"/>
</svg>
