<svg width="19" height="22" viewBox="0 0 19 22" fill="none" xmlns="http://www.w3.org/2000/svg">
<path d="M18.7463 4.22317C18.6616 4.12818 18.5579 4.05137 18.4417 3.99756C18.3254 3.94376 18.1991 3.9141 18.0706 3.91046C16.075 3.85919 13.5498 1.76248 11.8803 0.93968C10.849 0.433016 10.1682 0.0989418 9.65687 0.0109377C9.55305 -0.00392686 9.44757 -0.00363895 9.34384 0.0117921C8.83254 0.0997962 8.15168 0.43387 7.12127 0.940534C5.45173 1.76248 2.92656 3.85919 0.930943 3.91046C0.802398 3.91429 0.676023 3.94402 0.559653 3.99782C0.443283 4.05161 0.339396 4.12831 0.254434 4.22317C0.0783263 4.41895 -0.0125361 4.67482 0.00139472 4.93575C0.430083 13.4995 3.55611 18.7994 9.04123 21.8795C9.18384 21.959 9.3421 22 9.49949 22C9.65687 22 9.81513 21.959 9.95861 21.8795C15.4437 18.7994 18.5689 13.4995 18.9984 4.93575C19.0132 4.67486 18.9226 4.4188 18.7463 4.22317ZM14.3846 7.59125L9.756 14.3026C9.58992 14.5436 9.32905 14.7034 9.0708 14.7034C8.81167 14.7034 8.52385 14.5641 8.34212 14.3855L5.07956 11.1789C4.97305 11.0739 4.91324 10.9316 4.91324 10.7833C4.91324 10.635 4.97305 10.4928 5.07956 10.3877L5.88564 9.59399C5.99277 9.48974 6.13746 9.43126 6.28824 9.43126C6.43902 9.43126 6.5837 9.48974 6.69084 9.59399L8.81254 11.6787L12.4986 6.33271C12.5838 6.21037 12.7149 6.12616 12.8632 6.09847C13.0114 6.07077 13.1648 6.10184 13.2899 6.1849L14.2333 6.81374C14.358 6.89741 14.4438 7.02615 14.4722 7.17183C14.5005 7.31752 14.4691 7.4683 14.3846 7.59125Z" fill="#244B30"/>
</svg>
